<svg width="375" height="284" viewBox="0 0 375 284" fill="none" xmlns="http://www.w3.org/2000/svg">
<g clip-path="url(#clip0_1_64)">
<mask id="mask0_1_64" style="mask-type:luminance" maskUnits="userSpaceOnUse" x="0" y="0" width="375" height="284">
<path d="M0 0V268C0 276.837 7.163 284 16 284H359C367.837 284 375 276.837 375 268V0H0Z" fill="white"/>
</mask>
<g mask="url(#mask0_1_64)">
<path d="M0 0V268C0 276.837 7.163 284 16 284H359C367.837 284 375 276.837 375 268V0H0Z" fill="url(#paint0_linear_1_64)"/>
</g>
<mask id="mask1_1_64" style="mask-type:luminance" maskUnits="userSpaceOnUse" x="0" y="0" width="375" height="284">
<path d="M0 0V268C0 276.837 7.163 284 16 284H359C367.837 284 375 276.837 375 268V0H0Z" fill="white"/>
</mask>
<g mask="url(#mask1_1_64)">
<g filter="url(#filter0_d_1_64)">
<path d="M-16 101.838C-16 94.076 -9.708 87.784 -1.946 87.784H204C211.762 87.784 218.054 94.076 218.054 101.838V229.946C218.054 237.708 211.762 244 204 244H-1.946C-9.708 244 -16 237.708 -16 229.946V101.838Z" fill="black"/>
</g>
<path d="M-16 101.838C-16 94.076 -9.708 87.784 -1.946 87.784H204C211.762 87.784 218.054 94.076 218.054 101.838V229.946C218.054 237.708 211.762 244 204 244H-1.946C-9.708 244 -16 237.708 -16 229.946V101.838Z" fill="#242742"/>
<g filter="url(#filter1_d_1_64)">
<path d="M-7.35101 101.838C-7.35101 100.261 -6.72456 98.7486 -5.60947 97.6335C-4.49438 96.5185 -2.98199 95.892 -1.40501 95.892H203.459C205.036 95.892 206.548 96.5185 207.663 97.6335C208.779 98.7486 209.405 100.261 209.405 101.838V229.946C209.405 231.523 208.779 233.035 207.663 234.15C206.548 235.266 205.036 235.892 203.459 235.892H-1.40501C-2.98199 235.892 -4.49438 235.266 -5.60947 234.15C-6.72456 233.035 -7.35101 231.523 -7.35101 229.946V101.838Z" fill="black"/>
</g>
<path d="M-7.35101 101.838C-7.35101 100.261 -6.72456 98.7486 -5.60947 97.6335C-4.49438 96.5185 -2.98199 95.892 -1.40501 95.892H203.459C205.036 95.892 206.548 96.5185 207.663 97.6335C208.779 98.7486 209.405 100.261 209.405 101.838V229.946C209.405 231.523 208.779 233.035 207.663 234.15C206.548 235.266 205.036 235.892 203.459 235.892H-1.40501C-2.98199 235.892 -4.49438 235.266 -5.60947 234.15C-6.72456 233.035 -7.35101 231.523 -7.35101 229.946V101.838Z" fill="url(#paint1_linear_1_64)"/>
<g filter="url(#filter2_d_1_64)">
<path d="M-7.35101 101.838C-7.35101 100.261 -6.72456 98.7486 -5.60947 97.6335C-4.49438 96.5185 -2.98199 95.892 -1.40501 95.892H203.459C205.036 95.892 206.548 96.5185 207.663 97.6335C208.779 98.7486 209.405 100.261 209.405 101.838V229.946C209.405 231.523 208.779 233.035 207.663 234.15C206.548 235.266 205.036 235.892 203.459 235.892H-1.40501C-2.98199 235.892 -4.49438 235.266 -5.60947 234.15C-6.72456 233.035 -7.35101 231.523 -7.35101 229.946V101.838Z" fill="black"/>
</g>
<path d="M-7.35101 101.838C-7.35101 100.261 -6.72456 98.7486 -5.60947 97.6335C-4.49438 96.5185 -2.98199 95.892 -1.40501 95.892H203.459C205.036 95.892 206.548 96.5185 207.663 97.6335C208.779 98.7486 209.405 100.261 209.405 101.838V229.946C209.405 231.523 208.779 233.035 207.663 234.15C206.548 235.266 205.036 235.892 203.459 235.892H-1.40501C-2.98199 235.892 -4.49438 235.266 -5.60947 234.15C-6.72456 233.035 -7.35101 231.523 -7.35101 229.946V101.838Z" fill="url(#paint2_linear_1_64)"/>
<mask id="mask2_1_64" style="mask-type:luminance" maskUnits="userSpaceOnUse" x="-8" y="95" width="218" height="141">
<path d="M-7.35101 101.838C-7.35101 100.261 -6.72456 98.7486 -5.60947 97.6335C-4.49438 96.5185 -2.98199 95.892 -1.40501 95.892H203.459C205.036 95.892 206.548 96.5185 207.663 97.6335C208.779 98.7486 209.405 100.261 209.405 101.838V229.946C209.405 231.523 208.779 233.035 207.663 234.15C206.548 235.266 205.036 235.892 203.459 235.892H-1.40501C-2.98199 235.892 -4.49438 235.266 -5.60947 234.15C-6.72456 233.035 -7.35101 231.523 -7.35101 229.946V101.838Z" fill="white"/>
</mask>
<g mask="url(#mask2_1_64)">
<path d="M203.459 313.189C250.627 313.189 288.864 274.952 288.864 227.784C288.864 180.616 250.627 142.379 203.459 142.379C156.291 142.379 118.054 180.616 118.054 227.784C118.054 274.952 156.291 313.189 203.459 313.189Z" fill="url(#paint3_linear_1_64)"/>
</g>
<mask id="mask3_1_64" style="mask-type:luminance" maskUnits="userSpaceOnUse" x="-8" y="95" width="218" height="141">
<path d="M-7.35101 101.838C-7.35101 100.261 -6.72456 98.7486 -5.60947 97.6335C-4.49438 96.5185 -2.98199 95.892 -1.40501 95.892H203.459C205.036 95.892 206.548 96.5185 207.663 97.6335C208.779 98.7486 209.405 100.261 209.405 101.838V229.946C209.405 231.523 208.779 233.035 207.663 234.15C206.548 235.266 205.036 235.892 203.459 235.892H-1.40501C-2.98199 235.892 -4.49438 235.266 -5.60947 234.15C-6.72456 233.035 -7.35101 231.523 -7.35101 229.946V101.838Z" fill="white"/>
</mask>
<g mask="url(#mask3_1_64)">
<path d="M126.793 16.8235C93.4407 -16.5292 39.3653 -16.5292 6.01253 16.8235C-27.3402 50.1763 -27.3402 104.252 6.01253 137.604C39.3653 170.957 93.4407 170.957 126.793 137.604C160.146 104.252 160.146 50.1763 126.793 16.8235Z" fill="url(#paint4_linear_1_64)"/>
</g>
<g filter="url(#filter3_d_1_64)">
<path d="M157.513 41.838C157.513 40.261 158.139 38.7486 159.255 37.6335C160.37 36.5185 161.882 35.892 163.459 35.892H385.621C387.198 35.892 388.71 36.5185 389.825 37.6335C390.941 38.7486 391.567 40.261 391.567 41.838V165.622C391.567 167.199 390.941 168.711 389.825 169.826C388.71 170.942 387.198 171.568 385.621 171.568H163.459C161.882 171.568 160.37 170.942 159.255 169.826C158.139 168.711 157.513 167.199 157.513 165.622V41.838Z" fill="black"/>
</g>
<path d="M157.513 41.838C157.513 40.261 158.139 38.7486 159.255 37.6335C160.37 36.5185 161.882 35.892 163.459 35.892H385.621C387.198 35.892 388.71 36.5185 389.825 37.6335C390.941 38.7486 391.567 40.261 391.567 41.838V165.622C391.567 167.199 390.941 168.711 389.825 169.826C388.71 170.942 387.198 171.568 385.621 171.568H163.459C161.882 171.568 160.37 170.942 159.255 169.826C158.139 168.711 157.513 167.199 157.513 165.622V41.838Z" fill="url(#paint5_linear_1_64)"/>
<path d="M157.513 41.838C157.513 40.261 158.139 38.7486 159.255 37.6335C160.37 36.5185 161.882 35.892 163.459 35.892H209.405V171.568H163.459C161.882 171.568 160.37 170.942 159.255 169.826C158.139 168.711 157.513 167.199 157.513 165.622V41.838Z" fill="url(#paint6_linear_1_64)"/>
<path d="M165.081 63.189C165.081 62.144 165.928 61.297 166.972 61.297H199.945C200.447 61.297 200.928 61.4963 201.283 61.8512C201.638 62.206 201.837 62.6872 201.837 63.189C201.837 63.6908 201.638 64.172 201.283 64.5268C200.928 64.8817 200.447 65.081 199.945 65.081H166.973C166.471 65.0807 165.99 64.8813 165.636 64.5265C165.281 64.1717 165.081 63.6906 165.081 63.189ZM165.081 74C165.081 72.955 165.928 72.108 166.972 72.108H196.162C196.664 72.108 197.145 72.3073 197.5 72.6621C197.855 73.017 198.054 73.4982 198.054 74C198.054 74.5018 197.855 74.983 197.5 75.3378C197.145 75.6927 196.664 75.892 196.162 75.892H166.972C166.47 75.8917 165.989 75.6923 165.635 75.3375C165.28 74.9827 165.081 74.5016 165.081 74ZM165.081 84.81C165.081 83.766 165.928 82.919 166.972 82.919H199.945C200.447 82.919 200.928 83.1183 201.283 83.4732C201.638 83.828 201.837 84.3092 201.837 84.811C201.837 85.3128 201.638 85.794 201.283 86.1488C200.928 86.5037 200.447 86.703 199.945 86.703H166.973C166.471 86.7027 165.99 86.5033 165.636 86.1485C165.281 85.7937 165.082 85.3126 165.082 84.811L165.081 84.81ZM165.081 95.622C165.081 94.577 165.928 93.73 166.972 93.73H188.054C188.556 93.73 189.037 93.9293 189.392 94.2841C189.747 94.639 189.946 95.1202 189.946 95.622C189.946 96.1238 189.747 96.605 189.392 96.9598C189.037 97.3147 188.556 97.514 188.054 97.514H166.972C166.47 97.5137 165.989 97.3143 165.635 96.9595C165.28 96.6047 165.081 96.1236 165.081 95.622Z" fill="#BABBDB"/>
<path d="M157.513 41.838C157.513 40.261 158.139 38.7486 159.255 37.6335C160.37 36.5185 161.882 35.892 163.459 35.892H385.621C387.198 35.892 388.71 36.5185 389.825 37.6335C390.941 38.7486 391.567 40.261 391.567 41.838V52.648H157.513V41.838Z" fill="#242742"/>
<path d="M169.676 47.785C171.617 47.785 173.19 46.2117 173.19 44.271C173.19 42.3303 171.617 40.757 169.676 40.757C167.735 40.757 166.162 42.3303 166.162 44.271C166.162 46.2117 167.735 47.785 169.676 47.785Z" fill="#FF6464"/>
<path d="M181.568 47.785C183.509 47.785 185.082 46.2117 185.082 44.271C185.082 42.3303 183.509 40.757 181.568 40.757C179.627 40.757 178.054 42.3303 178.054 44.271C178.054 46.2117 179.627 47.785 181.568 47.785Z" fill="#FF9255"/>
<path d="M193.459 47.785C195.4 47.785 196.973 46.2117 196.973 44.271C196.973 42.3303 195.4 40.757 193.459 40.757C191.518 40.757 189.945 42.3303 189.945 44.271C189.945 46.2117 191.518 47.785 193.459 47.785Z" fill="#6BD4A8"/>
<path d="M220.757 26.162C220.757 24.968 221.725 24 222.919 24H271.568C272.762 24 273.73 24.968 273.73 26.162V92.108C273.73 92.6814 273.502 93.2313 273.097 93.6368C272.691 94.0422 272.141 94.27 271.568 94.27H222.919C222.346 94.27 221.796 94.0422 221.39 93.6368C220.985 93.2313 220.757 92.6814 220.757 92.108V26.162Z" fill="white"/>
<path d="M220.757 26.162C220.757 24.968 221.725 24 222.919 24H271.568C272.762 24 273.73 24.968 273.73 26.162V92.108C273.73 92.6814 273.502 93.2313 273.097 93.6368C272.691 94.0422 272.141 94.27 271.568 94.27H222.919C222.346 94.27 221.796 94.0422 221.39 93.6368C220.985 93.2313 220.757 92.6814 220.757 92.108V26.162Z" fill="white"/>
<mask id="mask4_1_64" style="mask-type:luminance" maskUnits="userSpaceOnUse" x="220" y="24" width="54" height="71">
<path d="M220.757 26.162C220.757 24.968 221.725 24 222.919 24H271.568C272.762 24 273.73 24.968 273.73 26.162V92.108C273.73 92.6814 273.502 93.2313 273.097 93.6368C272.691 94.0422 272.141 94.27 271.568 94.27H222.919C222.346 94.27 221.796 94.0422 221.39 93.6368C220.985 93.2313 220.757 92.6814 220.757 92.108V26.162Z" fill="white"/>
</mask>
<g mask="url(#mask4_1_64)">
<path d="M279.201 39.61C279.834 40.243 279.835 41.27 279.201 41.903L265.539 55.573C264.98 56.132 264.317 56.5755 263.586 56.878C262.856 57.1806 262.073 57.3363 261.283 57.3363C260.493 57.3363 259.71 57.1806 258.98 56.878C258.249 56.5755 257.586 56.132 257.027 55.573C256.769 55.3151 256.463 55.1105 256.127 54.971C255.79 54.8314 255.429 54.7595 255.065 54.7595C254.7 54.7595 254.339 54.8314 254.002 54.971C253.666 55.1105 253.36 55.3151 253.102 55.573L243.68 65.002C243.245 65.4374 242.728 65.7828 242.16 66.0185C241.591 66.2541 240.982 66.3754 240.366 66.3754C239.75 66.3754 239.141 66.2541 238.572 66.0185C238.004 65.7828 237.487 65.4374 237.052 65.002C236.918 64.868 236.759 64.7617 236.584 64.6892C236.409 64.6166 236.221 64.5793 236.032 64.5793C235.843 64.5793 235.655 64.6166 235.48 64.6892C235.305 64.7617 235.146 64.868 235.012 65.002L217.579 82.444C217.43 82.6013 217.251 82.7272 217.052 82.8141C216.854 82.901 216.64 82.9473 216.423 82.9502C216.206 82.953 215.991 82.9124 215.791 82.8308C215.59 82.7491 215.407 82.628 215.254 82.4747C215.101 82.3214 214.98 82.1389 214.899 81.9381C214.817 81.7373 214.777 81.5222 214.78 81.3055C214.783 81.0887 214.829 80.8749 214.916 80.6764C215.004 80.4779 215.13 80.299 215.287 80.15L232.717 62.709C233.152 62.2735 233.669 61.9279 234.238 61.6922C234.806 61.4564 235.416 61.3351 236.032 61.3351C236.647 61.3351 237.257 61.4564 237.825 61.6922C238.394 61.9279 238.911 62.2735 239.346 62.709C239.48 62.843 239.639 62.9493 239.814 63.0219C239.989 63.0944 240.177 63.1317 240.366 63.1317C240.555 63.1317 240.743 63.0944 240.918 63.0219C241.093 62.9493 241.252 62.843 241.386 62.709L250.808 53.281C251.367 52.7218 252.03 52.2783 252.761 51.9756C253.491 51.673 254.274 51.5172 255.065 51.5172C255.855 51.5172 256.638 51.673 257.368 51.9756C258.099 52.2783 258.762 52.7218 259.321 53.281C259.579 53.5387 259.884 53.7432 260.221 53.8827C260.558 54.0222 260.919 54.094 261.283 54.094C261.647 54.094 262.008 54.0222 262.345 53.8827C262.682 53.7432 262.987 53.5387 263.245 53.281L276.908 39.611C277.212 39.307 277.624 39.1361 278.054 39.1359C278.484 39.1357 278.897 39.3062 279.201 39.61Z" fill="url(#paint7_linear_1_64)"/>
</g>
<path d="M247.244 105.081C247.244 103.887 248.212 102.919 249.406 102.919H314.271C315.465 102.919 316.433 103.887 316.433 105.081V182.919C316.433 183.492 316.205 184.042 315.8 184.448C315.394 184.853 314.844 185.081 314.271 185.081H249.406C248.833 185.081 248.283 184.853 247.877 184.448C247.472 184.042 247.244 183.492 247.244 182.919V105.081Z" fill="white"/>
<path fill-rule="evenodd" clip-rule="evenodd" d="M282.109 161.298C291.811 161.298 299.677 153.432 299.677 143.73C299.677 134.028 291.811 126.163 282.109 126.163C272.407 126.163 264.542 134.028 264.542 143.73C264.542 153.432 272.407 161.298 282.109 161.298ZM282.109 168.865C295.991 168.865 307.244 157.612 307.244 143.73C307.244 129.848 295.991 118.595 282.109 118.595C268.227 118.595 256.974 129.848 256.974 143.73C256.974 157.612 268.227 168.865 282.109 168.865Z" fill="url(#paint8_linear_1_64)"/>
<path d="M272.979 141.145C272.979 142.373 273.297 143.345 273.933 144.059C274.57 144.769 275.437 145.123 276.535 145.123C277.554 145.123 278.351 144.76 278.925 144.033C279.505 143.307 279.795 142.401 279.795 141.314H279.161C279.161 141.934 278.99 142.426 278.646 142.792C278.484 142.97 278.285 143.111 278.064 143.206C277.842 143.301 277.603 143.347 277.362 143.342C276.816 143.342 276.411 143.158 276.146 142.792C275.882 142.421 275.749 141.877 275.749 141.162C275.749 140.346 275.882 139.76 276.146 139.405C276.416 139.045 276.816 138.865 277.346 138.865C277.914 138.865 278.356 139.099 278.672 139.565C278.987 140.033 279.145 140.869 279.145 142.075L279.221 142.412C279.221 144.197 278.829 145.464 278.047 146.212C277.264 146.962 276.157 147.333 274.727 147.328H274.347V149.473H274.787C277.084 149.45 278.837 148.828 280.048 147.606C281.264 146.379 281.873 144.726 281.873 142.649V142.209C281.873 140.34 281.453 138.989 280.614 138.155C279.775 137.316 278.691 136.897 277.362 136.897C276.028 136.897 274.964 137.283 274.17 138.054C273.376 138.825 272.979 139.856 272.979 141.145ZM287.743 149.405H290.353V137.108H287.911L282.447 144.98V146.838H291.712V144.735H289.043L288.604 144.777H285.09L287.7 140.689H287.785V145.875L287.743 146.171V149.405Z" fill="#242742"/>
</g>
</g>
<defs>
<filter id="filter0_d_1_64" x="-48" y="79.784" width="298.054" height="220.216" filterUnits="userSpaceOnUse" color-interpolation-filters="sRGB">
<feFlood flood-opacity="0" result="BackgroundImageFix"/>
<feColorMatrix in="SourceAlpha" type="matrix" values="0 0 0 0 0 0 0 0 0 0 0 0 0 0 0 0 0 0 127 0" result="hardAlpha"/>
<feOffset dy="24"/>
<feGaussianBlur stdDeviation="16"/>
<feColorMatrix type="matrix" values="0 0 0 0 0 0 0 0 0 0 0 0 0 0 0 0 0 0 0.1 0"/>
<feBlend mode="normal" in2="BackgroundImageFix" result="effect1_dropShadow_1_64"/>
<feBlend mode="normal" in="SourceGraphic" in2="effect1_dropShadow_1_64" result="shape"/>
</filter>
<filter id="filter1_d_1_64" x="-39.351" y="87.892" width="280.756" height="204" filterUnits="userSpaceOnUse" color-interpolation-filters="sRGB">
<feFlood flood-opacity="0" result="BackgroundImageFix"/>
<feColorMatrix in="SourceAlpha" type="matrix" values="0 0 0 0 0 0 0 0 0 0 0 0 0 0 0 0 0 0 127 0" result="hardAlpha"/>
<feOffset dy="24"/>
<feGaussianBlur stdDeviation="16"/>
<feColorMatrix type="matrix" values="0 0 0 0 0 0 0 0 0 0 0 0 0 0 0 0 0 0 0.1 0"/>
<feBlend mode="normal" in2="BackgroundImageFix" result="effect1_dropShadow_1_64"/>
<feBlend mode="normal" in="SourceGraphic" in2="effect1_dropShadow_1_64" result="shape"/>
</filter>
<filter id="filter2_d_1_64" x="-39.351" y="87.892" width="280.756" height="204" filterUnits="userSpaceOnUse" color-interpolation-filters="sRGB">
<feFlood flood-opacity="0" result="BackgroundImageFix"/>
<feColorMatrix in="SourceAlpha" type="matrix" values="0 0 0 0 0 0 0 0 0 0 0 0 0 0 0 0 0 0 127 0" result="hardAlpha"/>
<feOffset dy="24"/>
<feGaussianBlur stdDeviation="16"/>
<feColorMatrix type="matrix" values="0 0 0 0 0 0 0 0 0 0 0 0 0 0 0 0 0 0 0.1 0"/>
<feBlend mode="normal" in2="BackgroundImageFix" result="effect1_dropShadow_1_64"/>
<feBlend mode="normal" in="SourceGraphic" in2="effect1_dropShadow_1_64" result="shape"/>
</filter>
<filter id="filter3_d_1_64" x="125.513" y="27.892" width="298.054" height="199.676" filterUnits="userSpaceOnUse" color-interpolation-filters="sRGB">
<feFlood flood-opacity="0" result="BackgroundImageFix"/>
<feColorMatrix in="SourceAlpha" type="matrix" values="0 0 0 0 0 0 0 0 0 0 0 0 0 0 0 0 0 0 127 0" result="hardAlpha"/>
<feOffset dy="24"/>
<feGaussianBlur stdDeviation="16"/>
<feColorMatrix type="matrix" values="0 0 0 0 0 0 0 0 0 0 0 0 0 0 0 0 0 0 0.1 0"/>
<feBlend mode="normal" in2="BackgroundImageFix" result="effect1_dropShadow_1_64"/>
<feBlend mode="normal" in="SourceGraphic" in2="effect1_dropShadow_1_64" result="shape"/>
</filter>
<linearGradient id="paint0_linear_1_64" x1="37500" y1="6055.45" x2="5829" y2="30041.2" gradientUnits="userSpaceOnUse">
<stop stop-color="#FF6A3A"/>
<stop offset="1" stop-color="#FF527B"/>
</linearGradient>
<linearGradient id="paint1_linear_1_64" x1="4830.43" y1="4085.47" x2="17387.4" y2="14807.8" gradientUnits="userSpaceOnUse">
<stop stop-color="#FF3E83"/>
<stop offset="1" stop-color="#FF9F2E"/>
</linearGradient>
<linearGradient id="paint2_linear_1_64" x1="4830.43" y1="4085.47" x2="17387.4" y2="14807.8" gradientUnits="userSpaceOnUse">
<stop stop-color="#FF3E83"/>
<stop offset="1" stop-color="#FF9F2E"/>
</linearGradient>
<linearGradient id="paint3_linear_1_64" x1="8658.55" y1="142.379" x2="8658.55" y2="17223.4" gradientUnits="userSpaceOnUse">
<stop stop-color="#FFB443"/>
<stop offset="1" stop-color="#FF5B64" stop-opacity="0"/>
</linearGradient>
<linearGradient id="paint4_linear_1_64" x1="-5972.64" y1="-5841.05" x2="6105.45" y2="-17919.1" gradientUnits="userSpaceOnUse">
<stop stop-color="#FFB443"/>
<stop offset="1" stop-color="#FF5B64" stop-opacity="0"/>
</linearGradient>
<linearGradient id="paint5_linear_1_64" x1="11860.2" y1="35.892" x2="11860.2" y2="13603.5" gradientUnits="userSpaceOnUse">
<stop stop-color="#F8F8F8"/>
<stop offset="1" stop-color="#EEEEEE"/>
</linearGradient>
<linearGradient id="paint6_linear_1_64" x1="2752.11" y1="35.892" x2="2752.11" y2="13603.5" gradientUnits="userSpaceOnUse">
<stop stop-color="#CACBE8"/>
<stop offset="1" stop-color="#CACBE8"/>
</linearGradient>
<linearGradient id="paint7_linear_1_64" x1="6561.07" y1="1219.67" x2="1839.82" y2="4708.7" gradientUnits="userSpaceOnUse">
<stop stop-color="#FF9049"/>
<stop offset="1" stop-color="#FF5E5E"/>
</linearGradient>
<linearGradient id="paint8_linear_1_64" x1="2770.47" y1="118.595" x2="2770.47" y2="5145.6" gradientUnits="userSpaceOnUse">
<stop stop-color="#FF6A3D"/>
<stop offset="1" stop-color="#FF5B66"/>
</linearGradient>
<clipPath id="clip0_1_64">
<rect width="375" height="284" fill="white"/>
</clipPath>
</defs>
</svg>
